HIERARCHY
ROOT Hips
{
  OFFSET 3.13124 94.3669 -3.18751
  CHANNELS  6 Xposition Yposition Zposition Zrotation Xrotation Yrotation
  JOINT LeftUpLeg
  {
    OFFSET 8.64259 1.95398 -2.38835
    CHANNELS 3 Zrotation Xrotation Yrotation
    JOINT LeftLeg
    {
      OFFSET 43.7702 0 0
      CHANNELS 3 Zrotation Xrotation Yrotation
      JOINT LeftFoot
      {
        OFFSET 40.6238 0 0
        CHANNELS 3 Zrotation Xrotation Yrotation
        JOINT LeftToeBase
        {
          OFFSET 12.7242 0 0
          CHANNELS 3 Zrotation Xrotation Yrotation
          End Site
          {
            OFFSET 0 0 0
          }
        }
      }
    }
  }
  JOINT RightUpLeg
  {
    OFFSET -8.2249 1.95398 -2.59336
    CHANNELS 3 Zrotation Xrotation Yrotation
    JOINT RightLeg
    {
      OFFSET 43.5653 0 0
      CHANNELS 3 Zrotation Xrotation Yrotation
      JOINT RightFoot
      {
        OFFSET 40.6238 0 0
        CHANNELS 3 Zrotation Xrotation Yrotation
        JOINT RightToeBase
        {
          OFFSET 12.7242 0 0
          CHANNELS 3 Zrotation Xrotation Yrotation
          End Site
          {
            OFFSET 0 0 0
          }
        }
      }
    }
  }
  JOINT Spine
  {
    OFFSET 0.165834 0.87714 6.61349
    CHANNELS 3 Zrotation Xrotation Yrotation
    JOINT Spine1
    {
      OFFSET 7.38962 1.71661e-005 0
      CHANNELS 3 Zrotation Xrotation Yrotation
      JOINT Spine2
      {
        OFFSET 11.9445 1.14441e-005 0
        CHANNELS 3 Zrotation Xrotation Yrotation
        JOINT Spine3
        {
          OFFSET 14.7254 4.19617e-005 0
          CHANNELS 3 Zrotation Xrotation Yrotation
          JOINT Spine4
          {
            OFFSET 10.9679 0 0
            CHANNELS 3 Zrotation Xrotation Yrotation
            JOINT RightShoulder
            {
              OFFSET 2.46616 -1.6653 3.69651
              CHANNELS 3 Zrotation Xrotation Yrotation
              JOINT RightArm
              {
                OFFSET 13.0012 0 0
                CHANNELS 3 Zrotation Xrotation Yrotation
                JOINT RightForeArm
                {
                  OFFSET 28.7848 1.52588e-005 0
                  CHANNELS 3 Zrotation Xrotation Yrotation
                  JOINT RightHand
                  {
                    OFFSET 26.5688 1.52588e-005 0
                    CHANNELS 3 Zrotation Xrotation Yrotation
                    End Site
                    {
                      OFFSET 0 0 0
                    }
                  }
                }
              }
            }
            JOINT LeftShoulder
            {
              OFFSET 2.38034 -1.29275 -3.75231
              CHANNELS 3 Zrotation Xrotation Yrotation
              JOINT LeftArm
              {
                OFFSET 16.3182 6.10352e-005 0
                CHANNELS 3 Zrotation Xrotation Yrotation
                JOINT LeftForeArm
                {
                  OFFSET 27.0901 0 0
                  CHANNELS 3 Zrotation Xrotation Yrotation
                  JOINT LeftHand
                  {
                    OFFSET 24.5451 1.52588e-005 0
                    CHANNELS 3 Zrotation Xrotation Yrotation
                    End Site
                    {
                      OFFSET 0 0 0
                    }
                  }
                }
              }
            }
            JOINT Neck
            {
              OFFSET 5.0226 -0.0266342 0
              CHANNELS 3 Zrotation Xrotation Yrotation
              JOINT Head
              {
                OFFSET 6.69363 2.86102e-005 0
                CHANNELS 3 Zrotation Xrotation Yrotation
                End Site
                {
                  OFFSET 0 0 0
                }
              }
            }
          }
        }
      }
    }
  }
}
MOTION
Frames:	6
Frame Time:	0.0333333
-28.7162 85.8576 -19.904 91.4061 -10.5215 91.7842 -165.21 31.5173 114.521 -58.6775 -6.2851 -37.5684 60.1015 25.7016 16.5506 28.7808 4.34128e-006 1.40684e-005 -179.3 30.6377 88.6324 -57.8925 21.2509 2.61392 58.7071 14.5178 9.03876 28.7808 1.37302e-005 2.81855e-005 1.26676 8.02655 -95.4378 10.6976 0.119773 -4.12359 -0.979809 -0.0617019 -4.12486 -23.4669 1.35258 -3.89896 -3.45426 1.35258 -3.89898 102.961 31.0934 -104.016 20.7055 26.5163 -89.9527 57.8159 42.4695 -72.2172 -27.4367 10.3784 -46.9976 -109.778 -38.8939 44.2078 -19.475 -4.5816 -66.0035 -93.3589 -7.63143 -92.6844 -32.2225 8.85455 -37.4103 -19.609 6.60295 50.7142 5.48092 5.35242 -43.3942 
-25.0953 81.9224 -21.7697 92.6059 -9.9359 92.464 -167.568 36.276 119.033 -60.7611 -7.53152 -39.9124 61.891 22.6793 14.2518 28.7808 4.34128e-006 1.40684e-005 -178.891 31.3618 87.8194 -67.4294 21.5385 1.75568 68.003 16.7602 8.3695 28.7808 1.37302e-005 2.81855e-005 1.11559 8.3412 -95.4298 10.0844 0.140385 -4.4808 -1.59433 -0.0568906 -4.48266 -24.0726 1.47953 -4.2323 -4.05996 1.47955 -4.23231 102.73 29.9005 -105.994 20.8369 22.1106 -91.8703 46.2983 42.9291 -62.5304 -32.3145 11.0792 -42.9707 -110.29 -40.5873 44.4016 -19.6448 -1.80908 -64.2274 -88.6102 -8.04996 -92.1488 -22.8619 7.49656 -44.1467 -17.9868 7.33675 52.4014 5.16338 5.55413 -42.3787 
-21.1856 78.4483 -24.0135 94.023 -10.2098 94.2343 -169.117 39.3759 123.707 -61.167 -10.0509 -42.1326 65.4094 19.5677 11.7371 28.7808 4.34128e-006 1.40684e-005 -178.356 30.7854 87.1123 -74.6629 20.7758 1.38791 73.1018 20.0025 8.7801 28.7808 1.37302e-005 2.81855e-005 1.18217 8.61083 -96.0564 9.5193 0.169645 -5.10275 -2.16153 -0.0530852 -5.10515 -24.6233 1.69074 -4.81805 -4.61063 1.69073 -4.81807 101.577 25.7083 -110.991 20.9896 17.4314 -94.0578 36.8685 46.1297 -52.1378 -37.0123 12.1942 -41.0981 -111.198 -42.4602 44.1609 -19.9081 0.603367 -62.5708 -82.1113 -8.10477 -91.3508 -5.49999 1.26738 -50.0609 -18.7961 6.67736 53.0196 7.07133 4.95713 -38.5383 
-16.7149 75.9481 -26.666 94.5986 -8.67886 94.6956 -171.651 43.136 127.129 -61.3598 -9.9115 -43.088 59.4311 18.9436 12.5933 28.7808 4.34128e-006 1.40684e-005 -177.333 27.7289 84.7539 -77.9794 21.7913 1.36559 78.9338 24.288 9.1429 28.7808 1.37302e-005 2.81855e-005 1.16898 8.8633 -96.5855 8.98568 0.015957 -5.89238 -2.69837 -0.242846 -5.88745 -25.1355 1.78598 -5.61682 -5.12285 1.78597 -5.61685 101.768 26.2932 -110.43 22.0445 12.2314 -94.431 28.906 43.9897 -44.8301 -38.4821 14.465 -45.7258 -111.717 -44.6447 44.6642 -20.9642 6.48173 -66.2624 -60.7091 -16.3012 -84.2372 14.1551 -7.26954 -51.0288 -14.7257 8.74486 58.5271 3.59839 6.00088 -41.0472 
-12.7221 74.49 -29.241 94.3784 -5.37329 93.8412 -173.916 45.6848 127.405 -60.5256 -12.2653 -43.7487 54.8691 20.9088 14.8226 28.7808 4.34128e-006 1.40684e-005 -176.525 23.4235 82.203 -78.2441 25.2561 1.59213 84.199 28.5339 9.20401 28.7808 1.37302e-005 2.81855e-005 0.799001 8.93027 -96.4361 8.89409 -0.313951 -6.40311 -2.7928 -0.596404 -6.38284 -25.2072 1.60916 -6.20595 -5.19454 1.60915 -6.20598 101.22 24.1127 -108.568 23.3531 5.78834 -98.7108 15.0022 45.8452 -27.3877 -36.9047 17.6152 -55.7012 -112.06 -45.0155 44.3859 -23.4765 11.1306 -72.442 -49.8189 -27.9783 -72.099 31.1999 -15.7651 -53.162 -12.0161 10.5194 60.6152 0.614919 7.26433 -41.1887 
-9.06112 73.7964 -32.0053 93.5586 -3.92908 93.8845 -175.761 47.8218 128.847 -60.7929 -13.9493 -44.0895 51.8711 19.2662 14.3863 28.7808 4.34128e-006 1.40684e-005 -175.988 20.1395 80.0723 -76.8698 25.5361 1.59705 84.487 31.9014 10.3147 28.7808 1.37302e-005 2.81855e-005 0.696199 8.9183 -96.3665 8.91881 -0.286851 -7.36601 -2.77331 -0.610528 -7.3468 -25.1466 1.93646 -7.11266 -5.13392 1.93645 -7.11267 101.484 24.787 -106.159 25.8353 -0.686382 -103.637 -0.830741 44.5248 -6.15093 -37.6831 21.5797 -64.7428 -113.055 -45.5191 43.278 -26.6609 14.6553 -67.1574 -48.3176 -31.8367 -68.6486 26.9668 -14.8938 -56.8452 -10.9258 11.2396 62.6997 -1.2741 7.96255 -39.3059 
